<svg width="373" height="106" viewBox="0 0 373 106" fill="none" xmlns="http://www.w3.org/2000/svg">
<path d="M0 60H26V86V59.25L0 58.5V60Z" fill="#E5737E"/>
<path d="M0 27C0 12.0883 12.0883 0 27 0H59C73.9117 0 86 12.0883 86 27V59C86 73.9117 73.9117 86 59 86H27C12.0883 86 0 73.9117 0 59V27Z" fill="#E5737E"/>
<path d="M0 90.1341C0 87.8509 0 58.5 0 58.5L26 59.25V86C26 86 21.5191 90.453 18.8984 93.0574L7.10156 104.781C4.48091 107.385 0 105.541 0 101.858V90.1341Z" fill="#E5737E"/>
<path d="M25.4059 68C22.5646 68 20.1199 66.9255 18.072 64.7765C16.024 62.6275 15 60.0623 15 57.0808C15 54.0993 16.024 51.5341 18.072 49.3851C20.1199 47.2361 22.5646 46.1616 25.4059 46.1616C26.2546 46.1616 27.0387 46.2197 27.7583 46.3359C28.8292 46.5087 29.9446 45.7764 29.9446 44.6916V23.645C29.9446 22.6892 30.6209 21.867 31.5588 21.6826L63 15.5C63.5523 15.5 64 15.9477 64 16.5V26.5L37.33 33.1232C36.4381 33.3445 35.8118 34.1453 35.8118 35.0642V57.0808C35.8118 60.0623 34.7878 62.6275 32.7399 64.7765C30.6919 66.9255 28.2472 68 25.4059 68Z" fill="white"/>
<path d="M53.5 61C50.633 61 48.1662 59.9255 46.0997 57.7765C44.0332 55.6275 43 53.0623 43 50.0808C43 47.0993 44.0332 44.5341 46.0997 42.3851C48.1662 40.2361 50.633 39.1616 53.5 39.1616C54.3564 39.1616 55.1476 39.2197 55.8737 39.3359C56.9554 39.5089 58.0798 38.7681 58.0798 37.6727V29.5329C58.0798 28.7389 57.3339 28.1561 56.5634 28.3481C56.3274 28.4069 56.0793 28.3939 55.8507 28.3107L42.251 23.3634C40.3473 22.6709 40.5612 19.9124 42.5488 19.5215L63 15.5C63.5523 15.5 64 15.9477 64 16.5V26.5V15V50.0808C64 53.0623 62.9668 55.6275 60.9003 57.7765C58.8338 59.9255 56.367 61 53.5 61Z" fill="white"/>
<path d="M109.024 64.512C107.701 64.512 106.677 64.1493 105.952 63.424C105.269 62.656 104.928 61.6107 104.928 60.288V22.592C104.928 21.2267 105.269 20.1813 105.952 19.456C106.677 18.7307 107.701 18.368 109.024 18.368C110.347 18.368 111.349 18.7307 112.032 19.456C112.757 20.1813 113.12 21.2267 113.12 22.592V37.696H136.352V22.592C136.352 21.2267 136.693 20.1813 137.376 19.456C138.101 18.7307 139.125 18.368 140.448 18.368C141.771 18.368 142.773 18.7307 143.456 19.456C144.181 20.1813 144.544 21.2267 144.544 22.592V60.288C144.544 61.6107 144.181 62.656 143.456 63.424C142.773 64.1493 141.771 64.512 140.448 64.512C139.125 64.512 138.101 64.1493 137.376 63.424C136.693 62.656 136.352 61.6107 136.352 60.288V44.544H113.12V60.288C113.12 61.6107 112.779 62.656 112.096 63.424C111.413 64.1493 110.389 64.512 109.024 64.512Z" fill="#040404"/>
<path d="M163.964 64.64C161.703 64.64 159.676 64.2133 157.884 63.36C156.135 62.464 154.748 61.2693 153.724 59.776C152.743 58.2827 152.252 56.5973 152.252 54.72C152.252 52.416 152.849 50.6027 154.044 49.28C155.239 47.9147 157.18 46.9333 159.868 46.336C162.556 45.7387 166.161 45.44 170.684 45.44H173.884V50.048H170.748C168.103 50.048 165.991 50.176 164.412 50.432C162.833 50.688 161.703 51.136 161.02 51.776C160.38 52.3733 160.06 53.2267 160.06 54.336C160.06 55.744 160.551 56.896 161.532 57.792C162.513 58.688 163.879 59.136 165.628 59.136C167.036 59.136 168.273 58.816 169.34 58.176C170.449 57.4933 171.324 56.576 171.964 55.424C172.604 54.272 172.924 52.9493 172.924 51.456V44.096C172.924 41.9627 172.455 40.4267 171.516 39.488C170.577 38.5493 168.999 38.08 166.78 38.08C165.543 38.08 164.199 38.2293 162.748 38.528C161.34 38.8267 159.847 39.3387 158.268 40.064C157.457 40.448 156.732 40.5547 156.092 40.384C155.495 40.2133 155.025 39.872 154.684 39.36C154.343 38.8053 154.172 38.208 154.172 37.568C154.172 36.928 154.343 36.3093 154.684 35.712C155.025 35.072 155.601 34.6027 156.412 34.304C158.375 33.4933 160.252 32.9173 162.044 32.576C163.879 32.2347 165.543 32.064 167.036 32.064C170.108 32.064 172.625 32.5333 174.588 33.472C176.593 34.4107 178.087 35.84 179.068 37.76C180.049 39.6373 180.54 42.0693 180.54 45.056V60.416C180.54 61.7387 180.22 62.7627 179.58 63.488C178.94 64.1707 178.023 64.512 176.828 64.512C175.633 64.512 174.695 64.1707 174.012 63.488C173.372 62.7627 173.052 61.7387 173.052 60.416V57.344H173.564C173.265 58.8373 172.668 60.1387 171.772 61.248C170.919 62.3147 169.831 63.1467 168.508 63.744C167.185 64.3413 165.671 64.64 163.964 64.64Z" fill="#040404"/>
<path d="M192.756 64.512C191.433 64.512 190.409 64.1707 189.684 63.488C189.001 62.7627 188.66 61.7387 188.66 60.416V36.224C188.66 34.9013 189.001 33.8987 189.684 33.216C190.367 32.5333 191.327 32.192 192.564 32.192C193.801 32.192 194.761 32.5333 195.444 33.216C196.127 33.8987 196.468 34.9013 196.468 36.224V40.256H195.828C196.425 37.696 197.599 35.7547 199.348 34.432C201.097 33.1093 203.423 32.32 206.324 32.064C207.22 31.9787 207.924 32.2133 208.436 32.768C208.991 33.28 209.311 34.0907 209.396 35.2C209.481 36.2667 209.225 37.1413 208.628 37.824C208.073 38.464 207.22 38.848 206.068 38.976L204.66 39.104C202.057 39.36 200.095 40.1707 198.772 41.536C197.449 42.8587 196.788 44.736 196.788 47.168V60.416C196.788 61.7387 196.447 62.7627 195.764 63.488C195.081 64.1707 194.079 64.512 192.756 64.512Z" fill="#040404"/>
<path d="M217.818 64.512C216.538 64.512 215.557 64.1707 214.874 63.488C214.192 62.7627 213.85 61.7387 213.85 60.416V36.224C213.85 34.9013 214.192 33.8987 214.874 33.216C215.557 32.5333 216.517 32.192 217.755 32.192C218.992 32.192 219.952 32.5333 220.635 33.216C221.317 33.8987 221.659 34.9013 221.659 36.224V40.896L220.954 38.976C221.808 36.8427 223.13 35.1573 224.923 33.92C226.715 32.6827 228.848 32.064 231.322 32.064C233.84 32.064 235.909 32.6613 237.531 33.856C239.152 35.0507 240.283 36.8853 240.923 39.36H240.027C240.88 37.0987 242.288 35.328 244.251 34.048C246.213 32.7253 248.475 32.064 251.035 32.064C253.424 32.064 255.386 32.5333 256.922 33.472C258.501 34.4107 259.674 35.84 260.443 37.76C261.211 39.6373 261.595 42.0267 261.595 44.928V60.416C261.595 61.7387 261.232 62.7627 260.507 63.488C259.824 64.1707 258.842 64.512 257.562 64.512C256.283 64.512 255.301 64.1707 254.618 63.488C253.936 62.7627 253.594 61.7387 253.594 60.416V45.248C253.594 42.8587 253.189 41.1093 252.379 40C251.611 38.8907 250.288 38.336 248.411 38.336C246.32 38.336 244.677 39.0827 243.482 40.576C242.288 42.0267 241.691 44.0533 241.691 46.656V60.416C241.691 61.7387 241.349 62.7627 240.667 63.488C239.984 64.1707 239.003 64.512 237.723 64.512C236.443 64.512 235.44 64.1707 234.715 63.488C234.032 62.7627 233.691 61.7387 233.691 60.416V45.248C233.691 42.8587 233.285 41.1093 232.475 40C231.706 38.8907 230.405 38.336 228.57 38.336C226.48 38.336 224.837 39.0827 223.643 40.576C222.448 42.0267 221.85 44.0533 221.85 46.656V60.416C221.85 63.1467 220.507 64.512 217.818 64.512Z" fill="#040404"/>
<path d="M284.12 64.64C280.877 64.64 278.061 63.9787 275.672 62.656C273.282 61.3333 271.426 59.456 270.104 57.024C268.781 54.5493 268.12 51.648 268.12 48.32C268.12 45.8027 268.482 43.5627 269.207 41.6C269.975 39.5947 271.064 37.888 272.471 36.48C273.879 35.0293 275.565 33.9413 277.527 33.216C279.49 32.448 281.688 32.064 284.12 32.064C287.362 32.064 290.178 32.7253 292.568 34.048C294.957 35.3707 296.813 37.248 298.135 39.68C299.458 42.112 300.12 44.992 300.12 48.32C300.12 50.8373 299.736 53.0987 298.967 55.104C298.242 57.1093 297.176 58.8373 295.768 60.288C294.36 61.696 292.674 62.784 290.711 63.552C288.749 64.2773 286.552 64.64 284.12 64.64ZM284.12 58.56C285.698 58.56 287.085 58.176 288.28 57.408C289.474 56.64 290.391 55.5093 291.031 54.016C291.714 52.48 292.056 50.5813 292.056 48.32C292.056 44.9067 291.33 42.368 289.88 40.704C288.429 38.9973 286.509 38.144 284.12 38.144C282.541 38.144 281.154 38.528 279.96 39.296C278.765 40.0213 277.826 41.152 277.143 42.688C276.503 44.1813 276.184 46.0587 276.184 48.32C276.184 51.6907 276.909 54.2507 278.359 56C279.81 57.7067 281.73 58.56 284.12 58.56Z" fill="#040404"/>
<path d="M310.69 64.512C309.41 64.512 308.429 64.1707 307.746 63.488C307.064 62.7627 306.723 61.7387 306.723 60.416V36.224C306.723 34.9013 307.064 33.8987 307.746 33.216C308.429 32.5333 309.389 32.192 310.626 32.192C311.864 32.192 312.824 32.5333 313.507 33.216C314.189 33.8987 314.53 34.9013 314.53 36.224V40.576L313.827 38.976C314.765 36.7147 316.216 35.008 318.178 33.856C320.184 32.6613 322.445 32.064 324.962 32.064C327.48 32.064 329.549 32.5333 331.171 33.472C332.792 34.4107 334.008 35.84 334.819 37.76C335.629 39.6373 336.034 42.0267 336.034 44.928V60.416C336.034 61.7387 335.693 62.7627 335.01 63.488C334.328 64.1707 333.346 64.512 332.066 64.512C330.786 64.512 329.784 64.1707 329.059 63.488C328.376 62.7627 328.035 61.7387 328.035 60.416V45.312C328.035 42.88 327.565 41.1093 326.626 40C325.73 38.8907 324.323 38.336 322.402 38.336C320.056 38.336 318.178 39.0827 316.771 40.576C315.405 42.0267 314.723 43.968 314.723 46.4V60.416C314.723 63.1467 313.378 64.512 310.69 64.512Z" fill="#040404"/>
<path d="M351.784 76.032C350.845 76.032 350.077 75.776 349.479 75.264C348.882 74.7947 348.52 74.1547 348.392 73.344C348.306 72.5333 348.456 71.68 348.84 70.784L353.191 61.12V64.448L341.543 37.504C341.159 36.5653 341.031 35.6907 341.159 34.88C341.287 34.0693 341.671 33.4293 342.311 32.96C342.994 32.448 343.911 32.192 345.064 32.192C346.045 32.192 346.834 32.4267 347.431 32.896C348.029 33.3227 348.562 34.1547 349.031 35.392L357.672 56.96H355.751L364.583 35.328C365.053 34.1333 365.607 33.3227 366.247 32.896C366.888 32.4267 367.741 32.192 368.807 32.192C369.746 32.192 370.493 32.448 371.047 32.96C371.602 33.4293 371.944 34.0693 372.072 34.88C372.199 35.648 372.05 36.5013 371.624 37.44L356.072 72.96C355.517 74.1547 354.92 74.9653 354.28 75.392C353.639 75.8187 352.807 76.032 351.784 76.032Z" fill="#040404"/>
</svg>
