<svg width="374" height="106" viewBox="0 0 374 106" fill="none" xmlns="http://www.w3.org/2000/svg">
<path d="M109.024 69.512C107.701 69.512 106.677 69.1493 105.952 68.424C105.269 67.656 104.928 66.6107 104.928 65.288V27.592C104.928 26.2267 105.269 25.1813 105.952 24.456C106.677 23.7307 107.701 23.368 109.024 23.368C110.347 23.368 111.349 23.7307 112.032 24.456C112.757 25.1813 113.12 26.2267 113.12 27.592V42.696H136.352V27.592C136.352 26.2267 136.693 25.1813 137.376 24.456C138.101 23.7307 139.125 23.368 140.448 23.368C141.771 23.368 142.773 23.7307 143.456 24.456C144.181 25.1813 144.544 26.2267 144.544 27.592V65.288C144.544 66.6107 144.181 67.656 143.456 68.424C142.773 69.1493 141.771 69.512 140.448 69.512C139.125 69.512 138.101 69.1493 137.376 68.424C136.693 67.656 136.352 66.6107 136.352 65.288V49.544H113.12V65.288C113.12 66.6107 112.779 67.656 112.096 68.424C111.413 69.1493 110.389 69.512 109.024 69.512ZM163.964 69.64C161.703 69.64 159.676 69.2133 157.884 68.36C156.135 67.464 154.748 66.2693 153.724 64.776C152.743 63.2827 152.252 61.5973 152.252 59.72C152.252 57.416 152.849 55.6027 154.044 54.28C155.239 52.9147 157.18 51.9333 159.868 51.336C162.556 50.7387 166.161 50.44 170.684 50.44H173.884V55.048H170.748C168.103 55.048 165.991 55.176 164.412 55.432C162.833 55.688 161.703 56.136 161.02 56.776C160.38 57.3733 160.06 58.2267 160.06 59.336C160.06 60.744 160.551 61.896 161.532 62.792C162.513 63.688 163.879 64.136 165.628 64.136C167.036 64.136 168.273 63.816 169.34 63.176C170.449 62.4933 171.324 61.576 171.964 60.424C172.604 59.272 172.924 57.9493 172.924 56.456V49.096C172.924 46.9627 172.455 45.4267 171.516 44.488C170.577 43.5493 168.999 43.08 166.78 43.08C165.543 43.08 164.199 43.2293 162.748 43.528C161.34 43.8267 159.847 44.3387 158.268 45.064C157.457 45.448 156.732 45.5547 156.092 45.384C155.495 45.2133 155.025 44.872 154.684 44.36C154.343 43.8053 154.172 43.208 154.172 42.568C154.172 41.928 154.343 41.3093 154.684 40.712C155.025 40.072 155.601 39.6027 156.412 39.304C158.375 38.4933 160.252 37.9173 162.044 37.576C163.879 37.2347 165.543 37.064 167.036 37.064C170.108 37.064 172.625 37.5333 174.588 38.472C176.593 39.4107 178.087 40.84 179.068 42.76C180.049 44.6373 180.54 47.0693 180.54 50.056V65.416C180.54 66.7387 180.22 67.7627 179.58 68.488C178.94 69.1707 178.023 69.512 176.828 69.512C175.633 69.512 174.695 69.1707 174.012 68.488C173.372 67.7627 173.052 66.7387 173.052 65.416V62.344H173.564C173.265 63.8373 172.668 65.1387 171.772 66.248C170.919 67.3147 169.831 68.1467 168.508 68.744C167.185 69.3413 165.671 69.64 163.964 69.64ZM192.756 69.512C191.433 69.512 190.409 69.1707 189.684 68.488C189.001 67.7627 188.66 66.7387 188.66 65.416V41.224C188.66 39.9013 189.001 38.8987 189.684 38.216C190.367 37.5333 191.327 37.192 192.564 37.192C193.801 37.192 194.761 37.5333 195.444 38.216C196.127 38.8987 196.468 39.9013 196.468 41.224V45.256H195.828C196.425 42.696 197.599 40.7547 199.348 39.432C201.097 38.1093 203.423 37.32 206.324 37.064C207.22 36.9787 207.924 37.2133 208.436 37.768C208.991 38.28 209.311 39.0907 209.396 40.2C209.481 41.2667 209.225 42.1413 208.628 42.824C208.073 43.464 207.22 43.848 206.068 43.976L204.66 44.104C202.057 44.36 200.095 45.1707 198.772 46.536C197.449 47.8587 196.788 49.736 196.788 52.168V65.416C196.788 66.7387 196.447 67.7627 195.764 68.488C195.081 69.1707 194.079 69.512 192.756 69.512ZM217.819 69.512C216.539 69.512 215.557 69.1707 214.875 68.488C214.192 67.7627 213.851 66.7387 213.851 65.416V41.224C213.851 39.9013 214.192 38.8987 214.875 38.216C215.557 37.5333 216.517 37.192 217.755 37.192C218.992 37.192 219.952 37.5333 220.635 38.216C221.317 38.8987 221.659 39.9013 221.659 41.224V45.896L220.955 43.976C221.808 41.8427 223.131 40.1573 224.923 38.92C226.715 37.6827 228.848 37.064 231.323 37.064C233.84 37.064 235.909 37.6613 237.531 38.856C239.152 40.0507 240.283 41.8853 240.923 44.36H240.027C240.88 42.0987 242.288 40.328 244.251 39.048C246.213 37.7253 248.475 37.064 251.035 37.064C253.424 37.064 255.387 37.5333 256.923 38.472C258.501 39.4107 259.675 40.84 260.443 42.76C261.211 44.6373 261.595 47.0267 261.595 49.928V65.416C261.595 66.7387 261.232 67.7627 260.507 68.488C259.824 69.1707 258.843 69.512 257.563 69.512C256.283 69.512 255.301 69.1707 254.619 68.488C253.936 67.7627 253.595 66.7387 253.595 65.416V50.248C253.595 47.8587 253.189 46.1093 252.379 45C251.611 43.8907 250.288 43.336 248.411 43.336C246.32 43.336 244.677 44.0827 243.483 45.576C242.288 47.0267 241.691 49.0533 241.691 51.656V65.416C241.691 66.7387 241.349 67.7627 240.667 68.488C239.984 69.1707 239.003 69.512 237.723 69.512C236.443 69.512 235.44 69.1707 234.715 68.488C234.032 67.7627 233.691 66.7387 233.691 65.416V50.248C233.691 47.8587 233.285 46.1093 232.475 45C231.707 43.8907 230.405 43.336 228.571 43.336C226.48 43.336 224.837 44.0827 223.643 45.576C222.448 47.0267 221.851 49.0533 221.851 51.656V65.416C221.851 68.1467 220.507 69.512 217.819 69.512ZM284.12 69.64C280.877 69.64 278.061 68.9787 275.672 67.656C273.282 66.3333 271.426 64.456 270.104 62.024C268.781 59.5493 268.12 56.648 268.12 53.32C268.12 50.8027 268.482 48.5627 269.208 46.6C269.976 44.5947 271.064 42.888 272.472 41.48C273.88 40.0293 275.565 38.9413 277.528 38.216C279.49 37.448 281.688 37.064 284.12 37.064C287.362 37.064 290.178 37.7253 292.568 39.048C294.957 40.3707 296.813 42.248 298.136 44.68C299.458 47.112 300.12 49.992 300.12 53.32C300.12 55.8373 299.736 58.0987 298.968 60.104C298.242 62.1093 297.176 63.8373 295.768 65.288C294.36 66.696 292.674 67.784 290.712 68.552C288.749 69.2773 286.552 69.64 284.12 69.64ZM284.12 63.56C285.698 63.56 287.085 63.176 288.28 62.408C289.474 61.64 290.392 60.5093 291.032 59.016C291.714 57.48 292.056 55.5813 292.056 53.32C292.056 49.9067 291.33 47.368 289.88 45.704C288.429 43.9973 286.509 43.144 284.12 43.144C282.541 43.144 281.154 43.528 279.96 44.296C278.765 45.0213 277.826 46.152 277.144 47.688C276.504 49.1813 276.184 51.0587 276.184 53.32C276.184 56.6907 276.909 59.2507 278.36 61C279.81 62.7067 281.73 63.56 284.12 63.56ZM310.691 69.512C309.411 69.512 308.429 69.1707 307.747 68.488C307.064 67.7627 306.723 66.7387 306.723 65.416V41.224C306.723 39.9013 307.064 38.8987 307.747 38.216C308.429 37.5333 309.389 37.192 310.627 37.192C311.864 37.192 312.824 37.5333 313.507 38.216C314.189 38.8987 314.531 39.9013 314.531 41.224V45.576L313.827 43.976C314.765 41.7147 316.216 40.008 318.179 38.856C320.184 37.6613 322.445 37.064 324.963 37.064C327.48 37.064 329.549 37.5333 331.171 38.472C332.792 39.4107 334.008 40.84 334.819 42.76C335.629 44.6373 336.035 47.0267 336.035 49.928V65.416C336.035 66.7387 335.693 67.7627 335.011 68.488C334.328 69.1707 333.347 69.512 332.067 69.512C330.787 69.512 329.784 69.1707 329.059 68.488C328.376 67.7627 328.035 66.7387 328.035 65.416V50.312C328.035 47.88 327.565 46.1093 326.627 45C325.731 43.8907 324.323 43.336 322.403 43.336C320.056 43.336 318.179 44.0827 316.771 45.576C315.405 47.0267 314.723 48.968 314.723 51.4V65.416C314.723 68.1467 313.379 69.512 310.691 69.512ZM351.784 81.032C350.845 81.032 350.077 80.776 349.48 80.264C348.882 79.7947 348.52 79.1547 348.392 78.344C348.306 77.5333 348.456 76.68 348.84 75.784L353.192 66.12V69.448L341.544 42.504C341.16 41.5653 341.032 40.6907 341.16 39.88C341.288 39.0693 341.672 38.4293 342.312 37.96C342.994 37.448 343.912 37.192 345.064 37.192C346.045 37.192 346.834 37.4267 347.432 37.896C348.029 38.3227 348.562 39.1547 349.032 40.392L357.672 61.96H355.752L364.584 40.328C365.053 39.1333 365.608 38.3227 366.248 37.896C366.888 37.4267 367.741 37.192 368.808 37.192C369.746 37.192 370.493 37.448 371.048 37.96C371.602 38.4293 371.944 39.0693 372.072 39.88C372.2 40.648 372.05 41.5013 371.624 42.44L356.072 77.96C355.517 79.1547 354.92 79.9653 354.28 80.392C353.64 80.8187 352.808 81.032 351.784 81.032Z" fill="#040404"/>
<path d="M0 60H26V86H0V60Z" fill="#F31010"/>
<path d="M0 27C0 12.0883 12.0883 0 27 0H59C73.9117 0 86 12.0883 86 27V59C86 73.9117 73.9117 86 59 86H27C12.0883 86 0 73.9117 0 59V27Z" fill="#F31010"/>
<path d="M0 90.1341C0 87.8509 0 86 0 86H26C26 86 21.5191 90.453 18.8984 93.0574L7.10156 104.781C4.48091 107.385 0 105.541 0 101.858V90.1341Z" fill="#F31010"/>
<path d="M25.4059 69C22.5646 69 20.1199 67.9255 18.072 65.7765C16.024 63.6275 15 61.0623 15 58.0808C15 55.0993 16.024 52.5341 18.072 50.3851C20.1199 48.2361 22.5646 47.1616 25.4059 47.1616C26.2546 47.1616 27.0387 47.2197 27.7583 47.3359C28.8292 47.5087 29.9446 46.7764 29.9446 45.6916V24.645C29.9446 23.6892 30.6209 22.867 31.5588 22.6826L63 16.5C63.5523 16.5 64 16.9477 64 17.5V27.5L54.5 29.8612L37.33 34.1232C36.4381 34.3445 35.8118 35.1453 35.8118 36.0642V58.0808C35.8118 61.0623 34.7878 63.6275 32.7399 65.7765C30.6919 67.9255 28.2472 69 25.4059 69Z" fill="white"/>
<path d="M53.5 62C50.633 62 48.1662 60.9255 46.0997 58.7765C44.0332 56.6275 43 54.0623 43 51.0808C43 48.0993 44.0332 45.5341 46.0997 43.3851C48.1662 41.2361 50.633 40.1616 53.5 40.1616C54.3564 40.1616 55.1476 40.2197 55.8737 40.3359C56.9554 40.5089 58.0798 39.7681 58.0798 38.6727V30.5329C58.0798 29.7389 57.3339 29.1561 56.5634 29.3481C56.3274 29.4069 56.0793 29.3939 55.8507 29.3107L42.251 24.3634C40.3473 23.6709 40.5612 20.9124 42.5488 20.5215L63 16.5C63.5523 16.5 64 16.9477 64 17.5V27.5V16V51.0808C64 54.0623 62.9668 56.6275 60.9003 58.7765C58.8338 60.9255 56.367 62 53.5 62Z" fill="white"/>
</svg>
