<svg width="470" height="134" viewBox="0 0 470 134" fill="none" xmlns="http://www.w3.org/2000/svg">
<path d="M0 75.8491H32.8392V108.717V97L0 63.3097V75.8491Z" fill="white"/>
<path d="M0 34.1321C0 15.2815 15.2681 0 34.1023 0H74.5198C93.354 0 108.622 15.2815 108.622 34.1321V74.5849C108.622 93.4355 93.354 108.717 74.5198 108.717H34.1023C15.2681 108.717 0 93.4355 0 74.5849V34.1321Z" fill="white"/>
<path d="M0 113.943C0 111.057 0 63.3097 0 63.3097L32.8392 97V108.717C32.8392 108.717 27.1796 114.346 23.8696 117.639L8.96961 132.459C5.6596 135.751 0 133.419 0 128.763V113.943Z" fill="white"/>
<path d="M32.0889 85.9623C28.5001 85.9623 25.4124 84.604 22.8257 81.8873C20.2391 79.1707 18.9457 75.9278 18.9457 72.1588C18.9457 68.3897 20.2391 65.1469 22.8257 62.4302C25.4124 59.7136 28.5001 58.3552 32.0889 58.3552C33.1608 58.3552 34.1512 58.4287 35.0601 58.5755C36.4127 58.7941 37.8215 57.8682 37.8215 56.4969V29.8909C37.8215 28.6826 38.6757 27.6432 39.8602 27.4101L79.572 19.5943C80.2696 19.5943 80.8351 20.1603 80.8351 20.8585V33.5L47.1496 41.8727C46.023 42.1525 45.232 43.1648 45.232 44.3265V72.1588C45.232 75.9278 43.9387 79.1707 41.352 81.8873C38.7653 84.604 35.6776 85.9623 32.0889 85.9623Z" fill="#E57373"/>
<path d="M67.5731 77.1132C63.9519 77.1132 60.8362 75.7549 58.2262 73.0382C55.6161 70.3216 54.3111 67.0788 54.3111 63.3097C54.3111 59.5407 55.6161 56.2978 58.2262 53.5812C60.8362 50.8645 63.9519 49.5062 67.5731 49.5062C68.6547 49.5062 69.6541 49.5796 70.5711 49.7265C71.9374 49.9452 73.3575 49.0088 73.3575 47.6239V37.3341C73.3575 36.3303 72.4154 35.5935 71.4423 35.8362C71.1442 35.9106 70.8308 35.8942 70.5421 35.7891L53.365 29.5349C50.9606 28.6595 51.2307 25.1722 53.7411 24.6782L79.572 19.5943C80.2696 19.5943 80.8351 20.1603 80.8351 20.8585V33.5V18.9623V63.3097C80.8351 67.0788 79.53 70.3216 76.9199 73.0382C74.3099 75.7549 71.1942 77.1132 67.5731 77.1132Z" fill="#E57373"/>
<path d="M137.703 81.5529C136.032 81.5529 134.739 81.0944 133.822 80.1775C132.96 79.2066 132.529 77.8852 132.529 76.2131V28.5597C132.529 26.8337 132.96 25.5123 133.822 24.5953C134.739 23.6784 136.032 23.2199 137.703 23.2199C139.373 23.2199 140.64 23.6784 141.502 24.5953C142.418 25.5123 142.876 26.8337 142.876 28.5597V47.6534H172.219V28.5597C172.219 26.8337 172.65 25.5123 173.512 24.5953C174.429 23.6784 175.722 23.2199 177.393 23.2199C179.063 23.2199 180.33 23.6784 181.192 24.5953C182.108 25.5123 182.566 26.8337 182.566 28.5597V76.2131C182.566 77.8852 182.108 79.2066 181.192 80.1775C180.33 81.0944 179.063 81.5529 177.393 81.5529C175.722 81.5529 174.429 81.0944 173.512 80.1775C172.65 79.2066 172.219 77.8852 172.219 76.2131V56.3103H142.876V76.2131C142.876 77.8852 142.445 79.2066 141.583 80.1775C140.72 81.0944 139.427 81.5529 137.703 81.5529Z" fill="white"/>
<path d="M207.094 81.7147C204.238 81.7147 201.678 81.1753 199.415 80.0966C197.206 78.9639 195.454 77.4537 194.161 75.5659C192.921 73.6781 192.302 71.5476 192.302 69.1743C192.302 66.2617 193.056 63.9694 194.565 62.2974C196.074 60.5714 198.526 59.3308 201.921 58.5757C205.316 57.8206 209.87 57.443 215.582 57.443H219.624V63.2682H215.663C212.322 63.2682 209.654 63.43 207.66 63.7537C205.666 64.0773 204.238 64.6436 203.376 65.4527C202.568 66.2078 202.163 67.2865 202.163 68.6889C202.163 70.4688 202.783 71.9251 204.023 73.0578C205.262 74.1905 206.987 74.7568 209.196 74.7568C210.974 74.7568 212.537 74.3523 213.884 73.5432C215.286 72.6803 216.39 71.5206 217.199 70.0643C218.007 68.608 218.411 66.936 218.411 65.0482V55.744C218.411 53.0471 217.818 51.1054 216.633 49.9188C215.447 48.7322 213.453 48.1389 210.651 48.1389C209.088 48.1389 207.391 48.3276 205.558 48.7052C203.78 49.0828 201.894 49.73 199.9 50.6469C198.876 51.1324 197.96 51.2672 197.152 51.0515C196.397 50.8357 195.804 50.4042 195.373 49.757C194.942 49.0558 194.727 48.3007 194.727 47.4916C194.727 46.6826 194.942 45.9005 195.373 45.1454C195.804 44.3363 196.532 43.743 197.556 43.3654C200.035 42.3406 202.406 41.6125 204.669 41.181C206.987 40.7495 209.088 40.5337 210.974 40.5337C214.855 40.5337 218.034 41.127 220.513 42.3137C223.046 43.5003 224.932 45.3072 226.171 47.7343C227.411 50.1076 228.031 53.182 228.031 56.9576V76.3749C228.031 78.047 227.626 79.3415 226.818 80.2584C226.01 81.1214 224.851 81.5529 223.342 81.5529C221.833 81.5529 220.648 81.1214 219.785 80.2584C218.977 79.3415 218.573 78.047 218.573 76.3749V72.4915H219.22C218.842 74.3793 218.088 76.0244 216.956 77.4267C215.878 78.7751 214.504 79.8269 212.834 80.582C211.163 81.3372 209.25 81.7147 207.094 81.7147Z" fill="white"/>
<path d="M243.46 81.5529C241.789 81.5529 240.496 81.1214 239.58 80.2584C238.718 79.3415 238.287 78.047 238.287 76.3749V45.7926C238.287 44.1206 238.718 42.853 239.58 41.99C240.442 41.127 241.655 40.6955 243.218 40.6955C244.78 40.6955 245.993 41.127 246.855 41.99C247.717 42.853 248.148 44.1206 248.148 45.7926V50.8897H247.34C248.095 47.6534 249.577 45.1993 251.786 43.5272C253.996 41.8552 256.933 40.8574 260.597 40.5337C261.729 40.4259 262.618 40.7225 263.265 41.4237C263.965 42.0709 264.369 43.0957 264.477 44.4981C264.585 45.8465 264.262 46.9522 263.507 47.8152C262.807 48.6243 261.729 49.1097 260.274 49.2715L258.495 49.4334C255.208 49.757 252.729 50.7818 251.059 52.5078C249.388 54.1798 248.553 56.5531 248.553 59.6275V76.3749C248.553 78.047 248.122 79.3415 247.259 80.2584C246.397 81.1214 245.131 81.5529 243.46 81.5529Z" fill="white"/>
<path d="M275.115 81.5529C273.498 81.5529 272.259 81.1214 271.397 80.2584C270.534 79.3415 270.103 78.047 270.103 76.3749V45.7926C270.103 44.1206 270.534 42.853 271.397 41.99C272.259 41.127 273.471 40.6955 275.034 40.6955C276.597 40.6955 277.81 41.127 278.672 41.99C279.534 42.853 279.965 44.1206 279.965 45.7926V51.6987L279.076 49.2715C280.154 46.5747 281.824 44.4442 284.088 42.88C286.351 41.3158 289.046 40.5337 292.171 40.5337C295.351 40.5337 297.965 41.2889 300.012 42.7991C302.06 44.3093 303.488 46.6286 304.297 49.757H303.165C304.243 46.8983 306.021 44.6599 308.5 43.0418C310.979 41.3698 313.835 40.5337 317.069 40.5337C320.086 40.5337 322.565 41.127 324.505 42.3137C326.499 43.5003 327.981 45.3072 328.951 47.7343C329.921 50.1076 330.406 53.1281 330.406 56.7958V76.3749C330.406 78.047 329.948 79.3415 329.032 80.2584C328.17 81.1214 326.93 81.5529 325.314 81.5529C323.697 81.5529 322.458 81.1214 321.595 80.2584C320.733 79.3415 320.302 78.047 320.302 76.3749V57.2003C320.302 54.1798 319.79 51.9684 318.766 50.566C317.796 49.1637 316.125 48.4625 313.754 48.4625C311.114 48.4625 309.039 49.4064 307.53 51.2942C306.021 53.128 305.267 55.6901 305.267 58.9802V76.3749C305.267 78.047 304.836 79.3415 303.973 80.2584C303.111 81.1214 301.872 81.5529 300.255 81.5529C298.638 81.5529 297.372 81.1214 296.456 80.2584C295.593 79.3415 295.162 78.047 295.162 76.3749V57.2003C295.162 54.1798 294.65 51.9684 293.626 50.566C292.656 49.1637 291.013 48.4625 288.695 48.4625C286.055 48.4625 283.98 49.4064 282.471 51.2942C280.962 53.128 280.208 55.6901 280.208 58.9802V76.3749C280.208 79.8269 278.51 81.5529 275.115 81.5529Z" fill="white"/>
<path d="M358.856 81.7147C354.761 81.7147 351.204 80.8787 348.186 79.2066C345.168 77.5346 342.824 75.1614 341.154 72.0869C339.483 68.9586 338.648 65.2909 338.648 61.0838C338.648 57.9015 339.106 55.0698 340.022 52.5887C340.992 50.0536 342.366 47.8962 344.145 46.1162C345.923 44.2824 348.052 42.907 350.53 41.99C353.009 41.0192 355.785 40.5337 358.856 40.5337C362.952 40.5337 366.509 41.3698 369.527 43.0418C372.545 44.7139 374.889 47.0871 376.559 50.1615C378.23 53.2359 379.065 56.8767 379.065 61.0838C379.065 64.2661 378.58 67.1247 377.61 69.6598C376.694 72.1948 375.347 74.3793 373.568 76.2131C371.79 77.9931 369.661 79.3685 367.182 80.3393C364.704 81.2562 361.928 81.7147 358.856 81.7147ZM358.856 74.0287C360.85 74.0287 362.602 73.5433 364.111 72.5724C365.62 71.6015 366.778 70.1722 367.587 68.2844C368.449 66.3426 368.88 63.9424 368.88 61.0838C368.88 56.7688 367.964 53.5595 366.132 51.456C364.299 49.2985 361.874 48.2198 358.856 48.2198C356.863 48.2198 355.111 48.7052 353.602 49.6761C352.093 50.593 350.908 52.0223 350.045 53.9641C349.237 55.8519 348.833 58.2251 348.833 61.0838C348.833 65.3448 349.749 68.581 351.581 70.7925C353.414 72.9499 355.839 74.0287 358.856 74.0287Z" fill="white"/>
<path d="M392.417 81.5529C390.8 81.5529 389.561 81.1214 388.698 80.2584C387.836 79.3415 387.405 78.047 387.405 76.3749V45.7926C387.405 44.1206 387.836 42.853 388.698 41.99C389.561 41.127 390.773 40.6955 392.336 40.6955C393.899 40.6955 395.111 41.127 395.974 41.99C396.836 42.853 397.267 44.1206 397.267 45.7926V51.2942L396.378 49.2715C397.563 46.4129 399.396 44.2554 401.875 42.7991C404.407 41.2889 407.264 40.5337 410.443 40.5337C413.623 40.5337 416.236 41.127 418.284 42.3137C420.332 43.5003 421.868 45.3072 422.892 47.7343C423.916 50.1076 424.428 53.1281 424.428 56.7958V76.3749C424.428 78.047 423.996 79.3415 423.134 80.2584C422.272 81.1214 421.033 81.5529 419.416 81.5529C417.799 81.5529 416.533 81.1214 415.617 80.2584C414.754 79.3415 414.323 78.047 414.323 76.3749V57.2812C414.323 54.2068 413.73 51.9684 412.545 50.566C411.413 49.1637 409.635 48.4625 407.21 48.4625C404.246 48.4625 401.875 49.4064 400.096 51.2942C398.372 53.128 397.51 55.5822 397.51 58.6566V76.3749C397.51 79.8269 395.812 81.5529 392.417 81.5529Z" fill="white"/>
<path d="M444.319 96.1159C443.134 96.1159 442.164 95.7923 441.409 95.1451C440.655 94.5518 440.197 93.7427 440.035 92.7179C439.927 91.6931 440.116 90.6143 440.601 89.4817L446.098 77.2649V81.472L431.386 47.4107C430.901 46.2241 430.739 45.1184 430.901 44.0936C431.062 43.0688 431.547 42.2597 432.356 41.6664C433.218 41.0192 434.377 40.6955 435.832 40.6955C437.071 40.6955 438.068 40.9922 438.823 41.5855C439.577 42.1249 440.251 43.1767 440.843 44.7408L451.756 72.006H449.331L460.486 44.6599C461.079 43.1497 461.78 42.1249 462.588 41.5855C463.396 40.9922 464.474 40.6955 465.821 40.6955C467.007 40.6955 467.95 41.0192 468.651 41.6664C469.351 42.2597 469.782 43.0688 469.944 44.0936C470.106 45.0644 469.917 46.1432 469.378 47.3298L449.735 92.2325C449.035 93.7427 448.28 94.7675 447.472 95.3069C446.664 95.8462 445.613 96.1159 444.319 96.1159Z" fill="white"/>
</svg>
