<svg width="484" height="134" viewBox="0 0 484 134" fill="none" xmlns="http://www.w3.org/2000/svg">
<path d="M145.006 30.3791V46.9711H170.409V30.3791C170.409 28.0088 170.937 26.2311 171.994 25.046C173.077 23.8608 174.49 23.2683 176.234 23.2683C178.004 23.2683 179.431 23.8608 180.514 25.046C181.624 26.2048 182.179 27.9825 182.179 30.3791V76.0071C182.179 78.4037 181.624 80.1946 180.514 81.3797C179.405 82.5648 177.978 83.1574 176.234 83.1574C174.464 83.1574 173.051 82.5648 171.994 81.3797C170.937 80.1682 170.409 78.3773 170.409 76.0071V56.5312H145.006V76.0071C145.006 78.4037 144.451 80.1946 143.341 81.3797C142.232 82.5648 140.805 83.1574 139.061 83.1574C137.291 83.1574 135.878 82.5648 134.821 81.3797C133.764 80.1682 133.236 78.3773 133.236 76.0071V30.3791C133.236 28.0088 133.751 26.2311 134.781 25.046C135.838 23.8608 137.265 23.2683 139.061 23.2683C140.831 23.2683 142.258 23.8608 143.341 25.046C144.451 26.2048 145.006 27.9825 145.006 30.3791Z" fill="white"/>
<path d="M221.412 77.0737C218.797 79.1016 216.26 80.6291 213.803 81.6562C211.373 82.657 208.638 83.1574 205.6 83.1574C202.826 83.1574 200.382 82.6175 198.268 81.5377C196.181 80.4316 194.57 78.9436 193.434 77.0737C192.297 75.2038 191.729 73.1759 191.729 70.99C191.729 68.0403 192.667 65.5251 194.543 63.4446C196.419 61.364 198.995 59.9682 202.271 59.2571C202.958 59.099 204.662 58.7435 207.383 58.1904C210.105 57.6374 212.429 57.137 214.358 56.6893C216.313 56.2152 218.427 55.649 220.699 54.9906C220.567 52.1462 219.986 50.0656 218.955 48.7488C217.951 47.4057 215.851 46.7341 212.654 46.7341C209.906 46.7341 207.832 47.116 206.432 47.8797C205.058 48.6435 203.869 49.7891 202.865 51.3166C201.888 52.8441 201.188 53.8581 200.765 54.3585C200.369 54.8325 199.497 55.0696 198.15 55.0696C196.934 55.0696 195.877 54.6877 194.979 53.9239C194.107 53.1338 193.671 52.1331 193.671 50.9216C193.671 49.0254 194.345 47.1818 195.692 45.3909C197.04 43.6 199.14 42.1252 201.994 40.9664C204.847 39.8076 208.4 39.2282 212.654 39.2282C217.41 39.2282 221.148 39.7944 223.869 40.9269C226.591 42.033 228.506 43.7976 229.616 46.2205C230.752 48.6435 231.32 51.8565 231.32 55.8597C231.32 58.388 231.307 60.5344 231.28 62.2989C231.28 64.0635 231.267 66.0255 231.24 68.1851C231.24 70.213 231.571 72.3331 232.231 74.5454C232.918 76.7313 233.262 78.1403 233.262 78.7724C233.262 79.8785 232.733 80.8925 231.676 81.8143C230.646 82.7097 229.47 83.1574 228.149 83.1574C227.04 83.1574 225.943 82.6439 224.86 81.6167C223.777 80.5633 222.628 79.0489 221.412 77.0737ZM220.699 61.4693C219.114 62.0487 216.802 62.6676 213.764 63.3261C210.752 63.9581 208.665 64.4322 207.502 64.7482C206.34 65.0379 205.23 65.6305 204.173 66.5259C203.116 67.395 202.588 68.6197 202.588 70.1999C202.588 71.8327 203.209 73.2286 204.451 74.3874C205.692 75.5198 207.317 76.0861 209.325 76.0861C211.465 76.0861 213.433 75.6252 215.23 74.7034C217.053 73.7553 218.387 72.5438 219.233 71.069C220.21 69.4361 220.699 66.7498 220.699 63.01V61.4693Z" fill="white"/>
<path d="M253.077 67.5926V76.5996C253.077 78.7856 252.561 80.4316 251.531 81.5377C250.501 82.6175 249.193 83.1574 247.608 83.1574C246.049 83.1574 244.767 82.6044 243.764 81.4982C242.76 80.3921 242.258 78.7592 242.258 76.5996V46.5761C242.258 41.7301 244.015 39.3072 247.528 39.3072C249.325 39.3072 250.619 39.8734 251.412 41.0059C252.205 42.1384 252.641 43.8107 252.72 46.023C254.014 43.8107 255.335 42.1384 256.683 41.0059C258.057 39.8734 259.88 39.3072 262.152 39.3072C264.424 39.3072 266.63 39.8734 268.77 41.0059C270.91 42.1384 271.98 43.6395 271.98 45.5094C271.98 46.8263 271.518 47.9192 270.593 48.7883C269.695 49.6311 268.717 50.0525 267.66 50.0525C267.264 50.0525 266.3 49.8154 264.767 49.3414C263.261 48.841 261.927 48.5908 260.765 48.5908C259.18 48.5908 257.885 49.0122 256.881 49.8549C255.877 50.6714 255.098 51.896 254.543 53.5289C253.988 55.1618 253.605 57.1106 253.394 59.3756C253.182 61.6142 253.077 64.3532 253.077 67.5926Z" fill="white"/>
<path d="M313.908 62.0224V76.3626C313.908 78.6276 313.393 80.3263 312.363 81.4587C311.333 82.5912 309.972 83.1574 308.281 83.1574C306.643 83.1574 305.309 82.5912 304.278 81.4587C303.274 80.3263 302.772 78.6276 302.772 76.3626V59.1781C302.772 56.4654 302.68 54.3585 302.495 52.8573C302.31 51.3561 301.808 50.1315 300.989 49.1834C300.17 48.2089 298.876 47.7217 297.105 47.7217C293.565 47.7217 291.227 48.9332 290.091 51.3561C288.981 53.7791 288.426 57.2555 288.426 61.7854V76.3626C288.426 78.6012 287.911 80.2999 286.881 81.4587C285.877 82.5912 284.543 83.1574 282.878 83.1574C281.24 83.1574 279.893 82.5912 278.836 81.4587C277.806 80.2999 277.29 78.6012 277.29 76.3626V45.5094C277.29 43.4815 277.753 41.9408 278.677 40.8874C279.629 39.8339 280.87 39.3072 282.403 39.3072C283.882 39.3072 285.111 39.8076 286.088 40.8084C287.092 41.7828 287.594 43.1391 287.594 44.8774V45.9045C289.47 43.6659 291.478 42.0198 293.618 40.9664C295.758 39.9129 298.136 39.3862 300.751 39.3862C303.473 39.3862 305.811 39.9261 307.766 41.0059C309.721 42.0857 311.333 43.7186 312.601 45.9045C314.424 43.6922 316.379 42.0594 318.466 41.0059C320.553 39.9261 322.865 39.3862 325.401 39.3862C328.36 39.3862 330.91 39.9656 333.05 41.1244C335.19 42.2832 336.788 43.9424 337.845 46.102C338.77 48.0509 339.232 51.1191 339.232 55.3066V76.3626C339.232 78.6276 338.717 80.3263 337.686 81.4587C336.656 82.5912 335.295 83.1574 333.604 83.1574C331.966 83.1574 330.619 82.5912 329.562 81.4587C328.532 80.2999 328.017 78.6012 328.017 76.3626V58.2299C328.017 55.9123 327.911 54.0556 327.7 52.6598C327.515 51.264 326.986 50.092 326.114 49.1439C325.243 48.1958 323.922 47.7217 322.151 47.7217C320.725 47.7217 319.364 48.1431 318.07 48.9858C316.801 49.8286 315.811 50.9611 315.097 52.3833C314.305 54.2005 313.908 57.4135 313.908 62.0224Z" fill="white"/>
<path d="M390.236 61.2323C390.236 64.4454 389.734 67.4082 388.73 70.1209C387.726 72.8335 386.273 75.1643 384.37 77.1132C382.468 79.0621 380.196 80.5633 377.554 81.6167C374.912 82.6439 371.94 83.1574 368.637 83.1574C365.361 83.1574 362.415 82.6307 359.8 81.5772C357.184 80.5238 354.912 79.0226 352.984 77.0737C351.081 75.0985 349.628 72.7808 348.624 70.1209C347.647 67.4345 347.158 64.4717 347.158 61.2323C347.158 57.9666 347.66 54.9774 348.664 52.2647C349.668 49.5521 351.108 47.2345 352.984 45.3119C354.859 43.3893 357.131 41.9145 359.8 40.8874C362.468 39.8339 365.414 39.3072 368.637 39.3072C371.913 39.3072 374.886 39.8339 377.554 40.8874C380.223 41.9408 382.508 43.442 384.41 45.3909C386.312 47.3398 387.752 49.6574 388.73 52.3437C389.734 55.0301 390.236 57.9929 390.236 61.2323ZM379.377 61.2323C379.377 56.8341 378.4 53.4104 376.444 50.9611C374.516 48.5118 371.913 47.2871 368.637 47.2871C366.524 47.2871 364.661 47.8402 363.05 48.9463C361.438 50.0261 360.196 51.6327 359.324 53.7659C358.452 55.8992 358.017 58.388 358.017 61.2323C358.017 64.0503 358.439 66.5128 359.285 68.6197C360.157 70.7266 361.385 72.3463 362.97 73.4788C364.582 74.5849 366.471 75.138 368.637 75.138C371.913 75.138 374.516 73.9133 376.444 71.464C378.4 68.9884 379.377 65.5778 379.377 61.2323Z" fill="white"/>
<path d="M408.624 45.2724V46.5761C410.526 44.0741 412.6 42.2437 414.846 41.0849C417.118 39.8998 419.72 39.3072 422.653 39.3072C425.506 39.3072 428.056 39.9261 430.301 41.1639C432.547 42.4017 434.225 44.1531 435.334 46.418C436.048 47.7349 436.51 49.157 436.722 50.6846C436.933 52.2121 437.039 54.161 437.039 56.5312V76.5996C437.039 78.7592 436.537 80.3921 435.533 81.4982C434.555 82.6044 433.274 83.1574 431.689 83.1574C430.077 83.1574 428.769 82.5912 427.765 81.4587C426.761 80.3263 426.259 78.7066 426.259 76.5996V58.625C426.259 55.0696 425.757 52.3569 424.753 50.487C423.776 48.5908 421.807 47.6427 418.848 47.6427C416.92 47.6427 415.163 48.2221 413.578 49.3809C411.992 50.5134 410.83 52.0804 410.09 54.082C409.562 55.6885 409.298 58.6908 409.298 63.089V76.5996C409.298 78.7856 408.782 80.4316 407.752 81.5377C406.748 82.6175 405.44 83.1574 403.829 83.1574C402.27 83.1574 400.989 82.5912 399.985 81.4587C398.981 80.3263 398.479 78.7066 398.479 76.5996V45.4304C398.479 43.3762 398.928 41.8487 399.826 40.8479C400.724 39.8208 401.953 39.3072 403.512 39.3072C404.463 39.3072 405.321 39.5311 406.088 39.9788C406.854 40.4265 407.461 41.0981 407.911 41.9935C408.386 42.889 408.624 43.9819 408.624 45.2724Z" fill="white"/>
<path d="M457.844 84.5006L458.835 82.0908L445.519 48.6698C444.7 46.7472 444.291 45.3514 444.291 44.4823C444.291 43.5605 444.529 42.7046 445.004 41.9145C445.48 41.1244 446.127 40.4923 446.946 40.0183C447.791 39.5442 448.663 39.3072 449.562 39.3072C451.12 39.3072 452.296 39.8076 453.089 40.8084C453.881 41.7828 454.581 43.1918 455.189 45.0354L464.344 71.5825L473.022 46.8921C473.709 44.8905 474.33 43.3235 474.885 42.191C475.44 41.0586 476.021 40.2948 476.629 39.8998C477.263 39.5047 478.148 39.3072 479.284 39.3072C480.103 39.3072 480.882 39.5311 481.622 39.9788C482.388 40.4002 482.97 40.9796 483.366 41.717C483.789 42.4544 484 43.2313 484 44.0478C483.894 44.5481 483.723 45.2592 483.485 46.181C483.247 47.1028 482.956 48.0377 482.613 48.9858L468.505 85.8042C467.289 89.0436 466.1 91.5851 464.938 93.4286C463.776 95.2722 462.23 96.6812 460.301 97.6557C458.399 98.6564 455.823 99.1568 452.573 99.1568C449.403 99.1568 447.025 98.8145 445.44 98.1297C443.855 97.445 443.062 96.194 443.062 94.3768C443.062 93.1389 443.432 92.1777 444.172 91.4929C444.938 90.8345 446.061 90.5053 447.54 90.5053C448.122 90.5053 448.69 90.5843 449.245 90.7423C449.931 90.9004 450.526 90.9794 451.028 90.9794C452.27 90.9794 453.247 90.795 453.961 90.4263C454.674 90.0576 455.308 89.4123 455.863 88.4906C456.444 87.5951 457.104 86.2651 457.844 84.5006Z" fill="white"/>
<path d="M0 75.8491H32.9721V108.717H0V75.8491Z" fill="white"/>
<path d="M0 34.1321C0 15.2815 15.3299 0 34.2402 0H74.8212C93.7316 0 109.061 15.2815 109.061 34.1321V74.5849C109.061 93.4355 93.7316 108.717 74.8213 108.717H34.2402C15.3299 108.717 0 93.4355 0 74.5849V34.1321Z" fill="white"/>
<path d="M0 113.943C0 111.057 0 108.717 0 108.717H32.9721C32.9721 108.717 27.2896 114.346 23.9662 117.639L9.0059 132.459C5.6825 135.751 0 133.419 0 128.763V113.943Z" fill="white"/>
<path d="M32.2188 87C28.6155 87 25.5153 85.6417 22.9182 82.925C20.321 80.2084 19.0225 76.9655 19.0225 73.1965C19.0225 69.4274 20.321 66.1846 22.9182 63.468C25.5153 60.7513 28.6155 59.393 32.2188 59.393C33.2951 59.393 34.2895 59.4664 35.202 59.6133C36.5601 59.8318 37.9746 58.906 37.9746 57.5347V30.948C37.9746 29.7311 38.8443 28.6868 40.0443 28.4629L78.6258 21.2642C79.9142 20.9431 81.1621 21.9144 81.1621 23.2382V34.5377L47.3404 42.9104C46.2093 43.1903 45.4151 44.2025 45.4151 45.3642V73.1965C45.4151 76.9655 44.1165 80.2084 41.5194 82.925C38.9222 85.6417 35.822 87 32.2188 87Z" fill="#2C2C2C"/>
<path d="M67.8465 78.1509C64.2107 78.1509 61.0824 76.7926 58.4618 74.076C55.8412 71.3593 54.5309 68.1165 54.5309 64.3474C54.5309 60.5784 55.8412 57.3355 58.4618 54.6189C61.0824 51.9023 64.2107 50.5439 67.8465 50.5439C68.9325 50.5439 69.9359 50.6174 70.8567 50.7642C72.2285 50.983 73.6544 50.0465 73.6544 48.6617V38.0702C73.6544 37.2347 72.8479 36.6345 72.0443 36.8719C71.7887 36.9473 71.5157 36.9397 71.2648 36.85L53.8618 30.6289C51.4241 29.7575 51.7097 26.2331 54.2561 25.763L78.6258 21.2642C79.9142 20.9431 81.1621 21.9144 81.1621 23.2382V34.5377V20V64.3474C81.1621 68.1165 79.8518 71.3593 77.2312 74.076C74.6106 76.7926 71.4823 78.1509 67.8465 78.1509Z" fill="#2C2C2C"/>
</svg>
